<svg width="100" height="100" version="1.1" viewBox="0 0 26.458 26.458" xmlns="http://www.w3.org/2000/svg" xmlns:xlink="http://www.w3.org/1999/xlink">
	<defs>
		<linearGradient id="linearGradient336" x1="2.1793" x2="4.9522" y1="1.1497" y2="7.91" gradientTransform="matrix(2.1713 0 0 2.1713 -.55813 -.55811)" gradientUnits="userSpaceOnUse">
			<stop style="stop-color:#ffffff;stop-opacity:.23017" offset="0"/>
			<stop style="stop-color:#ffffff;stop-opacity:0" offset="1"/>
		</linearGradient>
	</defs>
	<rect x=".26458" y=".26516" width="25.929" height="25.929" ry="5.4473" style="fill-rule:evenodd;fill:#009944;paint-order:markers stroke fill;stroke-width:2.0416"/>
	<rect x="1.0583" y="1.0583" width="24.341" height="24.341" ry="5.1141" style="fill-rule:evenodd;fill:url(#linearGradient336);paint-order:markers stroke fill;stroke-width:2.1906"/>
	<path d="m8.0221 18.782q0-1.5556 0.66977-2.6575h0.19445q-0.021606 0.17284-0.021606 0.34569 0 1.4908 1.0587 2.6142 1.0803 1.1019 2.9384 1.1019 1.4476 0 2.2469-0.69139 0.821-0.69139 0.821-1.75 0-0.62657-0.41051-1.1235-0.38889-0.49693-1.3179-1.1019l-3.7593-2.4846q-2.0958-1.4044-2.0958-3.4569 0-0.21606 0.043211-0.43211 0.12963-1.7068 1.3179-2.7438 1.2099-1.0371 3.2193-1.0371 1.1883 0 2.9384 0.21606h1.3612l-0.28088 3.176h-0.21606q0-1.1235-0.84262-1.7933-0.821-0.69139-2.2038-0.69139-1.6852 0-2.4415 1.0371-0.38889 0.49693-0.38889 0.99386t0.19445 0.84262q0.30247 0.56175 1.3179 1.2099l4.1268 2.6791q1.9445 1.2747 1.9445 3.3273 0 2.2902-1.5772 3.5217-1.5556 1.2099-4.1482 1.2099-1.4692 0-2.7224-0.34569-1.2315-0.36729-1.8149-0.97226-0.15124-0.41051-0.15124-0.99386z" style="fill:#ffffff;stroke-width:.54015"/>
</svg>
