<svg width="100" height="100" version="1.1" viewBox="0 0 26.458 26.458" xmlns="http://www.w3.org/2000/svg" xmlns:xlink="http://www.w3.org/1999/xlink">
	<defs>
		<linearGradient id="linearGradient1014" x1="2.1793" x2="4.9522" y1="1.1497" y2="7.91" gradientTransform="matrix(.99121 0 0 .99121 .32039 .32039)" gradientUnits="userSpaceOnUse">
			<stop style="stop-color:#ffffff;stop-opacity:.23017" offset="0"/>
			<stop style="stop-color:#ffffff;stop-opacity:0" offset="1"/>
		</linearGradient>
	</defs>
	<rect x=".26458" y=".26458" width="12.7" height="12.7" ry="2.6681" style="fill-rule:evenodd;fill:#b3b3b3;paint-order:markers stroke fill"/>
	<rect id="rect952" x="1.0583" y="1.0583" width="11.112" height="11.112" ry="2.3346" style="fill-rule:evenodd;fill:url(#linearGradient1014);paint-order:markers stroke fill"/>
	<rect x="13.494" y=".26458" width="12.7" height="12.7" ry="2.6681" style="fill-rule:evenodd;fill:#aaaa22;paint-order:markers stroke fill"/>
	<use transform="translate(13.229)" xlink:href="#rect952"/>
	<rect x=".26458" y="13.494" width="12.7" height="12.7" ry="2.6681" style="fill-rule:evenodd;fill:#009944;paint-order:markers stroke fill"/>
	<rect x="13.494" y="13.494" width="12.7" height="12.7" ry="2.6681" style="fill-rule:evenodd;fill:#b3b3b3;paint-order:markers stroke fill"/>
	<use transform="translate(0 13.229)" xlink:href="#rect952"/>
	<use transform="translate(13.229 13.229)" xlink:href="#rect952"/>
	<path d="m4.0637 22.563q0-0.76198 0.32807-1.3017h0.095247q-0.010583 0.08466-0.010583 0.16933 0 0.73023 0.51857 1.2805 0.52915 0.53973 1.4393 0.53973 0.70906 0 1.1006-0.33866 0.40215-0.33866 0.40215-0.85722 0-0.30691-0.20108-0.55032-0.19049-0.24341-0.64556-0.53973l-1.8414-1.217q-1.0266-0.6879-1.0266-1.6933 0-0.10583 0.021166-0.21166 0.063498-0.83606 0.64556-1.344 0.59265-0.50798 1.5769-0.50798 0.58206 0 1.4393 0.10583h0.66673l-0.13758 1.5557h-0.10583q0-0.55032-0.41274-0.87839-0.40215-0.33866-1.0795-0.33866-0.82547 0-1.1959 0.50798-0.19049 0.24341-0.19049 0.48682t0.095247 0.41274q0.14816 0.27516 0.64556 0.59265l2.0214 1.3123q0.95247 0.6244 0.95247 1.6298 0 1.1218-0.77256 1.725-0.76198 0.59265-2.0319 0.59265-0.71964 0-1.3335-0.16933-0.60323-0.17991-0.88897-0.47624-0.074081-0.20108-0.074081-0.48682z" style="fill:#ffffff;stroke-width:.26458"/>
</svg>
